<?xml version="1.0" standalone="no"?>
<!DOCTYPE svg PUBLIC "-//W3C//DTD SVG 20010904//EN"
 "http://www.w3.org/TR/2001/REC-SVG-20010904/DTD/svg10.dtd">
<svg version="1.0" xmlns="http://www.w3.org/2000/svg"
 width="546.000000pt" height="546.000000pt" viewBox="0 0 546.000000 546.000000"
 preserveAspectRatio="xMidYMid meet">
<metadata>
Created by potrace 1.14, written by Peter Selinger 2001-2017
</metadata>
<g transform="translate(0.000000,546.000000) scale(0.100000,-0.100000)"
fill="#000000" stroke="none">
<path d="M2618 5245 c-3 -4 -19 -7 -93 -20 -53 -9 -179 -52 -237 -82 -208
-103 -384 -281 -485 -491 -24 -51 -46 -101 -48 -110 -2 -9 -11 -42 -19 -72
-22 -81 -26 -105 -33 -210 -3 -52 -7 -96 -8 -97 -1 -2 -275 -3 -609 -3 l-607
-1 32 -57 c18 -31 38 -66 46 -77 7 -11 13 -28 13 -38 0 -10 4 -15 10 -12 5 3
10 -1 10 -9 0 -9 5 -16 11 -16 5 0 8 -4 5 -9 -3 -5 1 -14 9 -21 8 -7 12 -16 9
-21 -3 -5 0 -9 6 -9 6 0 8 -4 5 -10 -3 -5 -1 -10 4 -10 6 0 11 -7 11 -15 0 -8
5 -15 10 -15 6 0 10 -7 10 -15 0 -8 6 -15 13 -15 8 0 7 -4 -3 -10 -13 -8 -13
-10 2 -10 9 0 20 -10 24 -22 4 -13 9 -25 13 -28 3 -3 17 -27 31 -55 14 -27 30
-55 36 -62 7 -7 22 -33 34 -58 12 -25 26 -47 31 -51 5 -3 7 -10 4 -15 -4 -5
-1 -9 4 -9 6 0 11 -9 11 -21 0 -11 5 -17 10 -14 10 6 14 -8 10 -35 -1 -8 1
-12 6 -8 10 11 37 -30 28 -44 -4 -7 -3 -8 4 -4 11 6 16 -6 13 -26 0 -5 3 -8 8
-8 14 0 72 -110 65 -122 -4 -6 -3 -8 3 -5 6 4 14 0 17 -9 9 -23 8 -26 -7 -17
-6 4 -21 8 -32 9 -124 9 -255 22 -310 29 -16 2 -59 7 -95 10 -36 4 -76 8 -90
11 -14 2 -57 7 -97 10 l-72 6 -7 -27 c-4 -17 -2 -31 7 -40 14 -13 91 -28 137
-26 16 1 21 -3 16 -12 -5 -9 -4 -9 6 0 7 7 22 8 39 4 14 -5 32 -6 40 -3 10 3
11 0 5 -9 -6 -11 -5 -12 7 -3 8 6 22 10 31 8 10 -2 24 -5 30 -7 7 -1 19 -7 27
-11 10 -6 12 -5 7 2 -5 8 2 10 21 7 15 -2 44 -6 63 -9 19 -2 42 -7 51 -11 10
-3 20 -1 24 4 3 6 11 9 16 5 5 -3 7 -8 5 -12 -2 -4 26 -7 62 -6 47 0 73 -4 86
-15 11 -9 17 -11 13 -5 -6 11 11 11 58 0 11 -2 23 -5 28 -5 18 -2 4 -16 -18
-17 -15 -1 -22 2 -18 9 3 6 1 7 -5 3 -16 -10 -16 -11 16 -32 26 -17 27 -17 12
1 -14 17 -13 18 3 12 10 -4 23 -7 29 -7 6 0 5 -7 -3 -17 -8 -9 -9 -14 -3 -10
10 6 37 -22 37 -39 0 -5 7 -15 14 -22 7 -8 11 -17 8 -22 -3 -4 2 -11 11 -14 9
-4 14 -9 11 -12 -3 -4 2 -15 12 -25 25 -27 62 -99 50 -99 -5 0 -9 -5 -9 -11 0
-5 4 -8 9 -4 11 6 51 -41 51 -60 0 -7 6 -18 14 -25 8 -6 12 -19 9 -27 -4 -11
-2 -14 5 -9 7 4 12 2 12 -4 0 -7 9 -23 20 -37 11 -14 20 -35 20 -46 0 -11 3
-17 7 -14 7 8 53 -68 53 -89 0 -8 4 -14 9 -14 5 0 17 -18 27 -40 10 -22 22
-40 27 -40 4 0 5 -4 2 -10 -3 -5 -1 -10 4 -10 6 0 11 -9 11 -20 0 -11 5 -20
10 -20 6 0 10 -6 10 -14 0 -8 7 -17 16 -20 9 -3 14 -13 11 -20 -3 -8 1 -17 9
-20 9 -3 13 -10 10 -15 -4 -5 0 -11 6 -14 18 -6 5 -18 -21 -20 -11 -1 -21 -5
-21 -9 0 -4 -3 -7 -7 -6 -7 2 -89 -11 -118 -18 -5 -1 -26 -5 -45 -9 -83 -15
-115 -25 -125 -38 -5 -7 -17 -16 -26 -19 -24 -9 -30 -44 -10 -61 18 -17 113
-33 206 -36 30 -1 36 -4 25 -11 -9 -6 -10 -10 -3 -10 6 0 15 5 18 10 4 6 11 7
17 4 10 -7 35 -10 81 -13 11 -1 15 -6 11 -13 -5 -7 -3 -8 7 -2 24 15 38 13 44
-5 3 -10 13 -18 21 -18 15 0 15 2 0 13 -13 9 -14 13 -4 16 7 3 19 -2 26 -11 8
-9 11 -11 8 -5 -3 7 7 9 31 5 20 -3 39 -13 41 -21 5 -13 3 -13 -13 0 -11 9
-16 10 -11 2 4 -6 3 -12 -1 -12 -5 0 -15 6 -22 12 -10 11 -11 10 -6 -4 5 -13
16 -17 39 -15 24 1 31 -2 30 -15 -1 -10 2 -16 6 -15 4 1 8 -1 9 -6 0 -4 10
-17 21 -29 11 -12 18 -28 15 -36 -2 -7 -1 -11 3 -8 4 3 14 -4 21 -16 7 -11 8
-17 2 -14 -7 4 -8 1 -5 -8 3 -9 9 -14 13 -11 4 2 20 -18 34 -45 15 -28 25 -50
22 -50 -3 0 3 -10 15 -22 11 -12 20 -28 20 -35 0 -7 5 -13 12 -13 6 0 9 -3 5
-6 -3 -4 1 -13 9 -21 8 -9 13 -22 10 -30 -4 -8 -1 -11 5 -8 6 4 13 -2 16 -14
3 -12 10 -21 15 -21 5 0 8 -5 6 -12 -2 -6 4 -20 14 -30 10 -10 16 -23 13 -28
-4 -6 -1 -10 4 -10 6 0 11 -7 11 -15 0 -8 5 -15 10 -15 6 0 10 -4 10 -9 0 -5
18 -39 41 -76 22 -37 38 -69 35 -72 -3 -3 -19 -6 -36 -7 -16 -1 -30 -4 -30 -7
0 -4 -7 -10 -16 -13 -10 -4 -13 -2 -8 7 6 9 5 9 -7 0 -8 -6 -26 -14 -39 -17
-14 -3 -131 -33 -260 -67 -129 -34 -257 -66 -285 -72 -27 -6 -56 -16 -63 -23
-16 -16 -16 -53 1 -59 30 -11 66 -13 69 -4 2 6 22 11 45 12 22 1 39 5 37 8 -1
3 26 11 61 18 36 7 65 17 65 23 0 5 4 7 9 4 5 -3 32 1 61 10 29 9 61 13 71 11
11 -3 17 -2 14 3 -3 4 2 11 11 14 25 9 27 7 13 -11 -10 -11 -4 -10 16 5 34 24
115 46 115 30 0 -5 6 -3 14 5 8 8 43 20 78 27 35 7 67 15 73 19 16 8 45 8 39
-1 -3 -4 0 -8 7 -8 8 0 8 -4 -1 -15 -11 -13 -10 -14 4 -9 10 4 18 0 23 -12 3
-11 9 -21 13 -24 3 -3 17 -26 30 -52 14 -27 28 -48 32 -48 5 0 8 -9 8 -20 0
-11 5 -20 11 -20 6 0 9 -9 6 -20 -3 -11 0 -18 7 -17 6 1 10 -6 10 -15 -1 -10
2 -16 6 -13 4 2 13 -8 21 -23 7 -15 20 -35 27 -44 8 -10 12 -24 9 -32 -4 -10
-1 -13 9 -9 8 3 14 -1 14 -9 0 -7 16 -38 35 -68 20 -30 43 -71 52 -90 10 -19
20 -37 23 -40 15 -11 30 -51 24 -62 -4 -6 -3 -8 4 -4 6 3 17 -6 25 -21 7 -16
26 -49 41 -76 15 -26 24 -52 21 -57 -3 -5 0 -12 6 -16 8 -5 9 -3 4 7 -8 12 -6
12 8 0 9 -7 14 -17 11 -22 -3 -5 -1 -9 5 -9 5 0 8 -10 6 -21 -3 -12 -2 -19 2
-15 3 3 13 0 22 -7 14 -11 14 -10 2 6 -19 24 -5 34 18 13 13 -12 21 -14 26 -6
3 6 1 9 -5 8 -17 -4 -38 31 -24 40 6 4 14 16 18 27 6 16 9 17 17 5 9 -12 10
-11 5 4 -4 10 -1 25 5 32 6 8 8 14 5 14 -4 0 -1 6 6 14 7 8 16 12 20 9 4 -2 5
3 2 11 -4 10 -1 16 7 16 7 0 10 3 6 6 -8 8 40 89 51 87 6 -1 16 5 24 15 12 15
11 16 -4 3 -27 -21 -22 -6 30 85 32 57 52 82 61 79 11 -5 12 -3 1 10 -9 11 -9
15 -1 15 7 0 10 4 7 9 -8 12 16 29 37 26 9 -2 15 1 11 6 -3 5 -10 7 -15 4 -5
-4 -9 1 -9 10 0 11 5 15 16 11 9 -3 12 -2 9 4 -7 11 29 88 48 105 7 6 12 17
12 25 0 8 6 14 13 12 7 -1 12 3 11 10 -3 21 12 48 24 41 5 -3 7 -1 4 5 -4 5 1
25 10 43 17 31 23 40 49 71 11 14 14 22 14 39 0 5 4 7 10 4 6 -3 7 1 4 9 -3 9
-2 16 2 16 5 0 16 15 23 32 17 37 36 59 45 53 3 -3 2 0 -3 6 -6 8 -5 17 2 25
24 26 33 39 35 47 11 47 68 117 93 112 11 -2 19 1 19 6 0 6 4 8 9 5 5 -3 24 1
43 9 27 11 38 11 48 2 10 -9 11 -9 6 1 -5 8 2 14 23 18 17 4 33 5 37 4 4 -1
11 4 15 12 7 10 9 10 9 1 0 -7 5 -13 11 -13 5 0 7 5 3 12 -5 8 -2 9 9 5 10 -3
17 -3 17 2 0 5 13 11 30 13 26 4 28 2 18 -11 -7 -9 0 -5 14 8 17 15 34 22 48
18 11 -3 18 -1 14 4 -3 5 6 9 20 9 34 0 42 -3 38 -15 -2 -5 0 -6 5 -2 4 5 8
14 8 20 0 5 6 12 14 15 9 3 11 0 7 -9 -4 -8 -2 -7 6 2 7 9 26 15 45 14 18 -1
30 2 27 7 -3 4 0 9 5 9 6 1 17 2 24 3 6 1 15 -3 19 -9 5 -6 8 -2 8 9 0 20 0
20 15 0 15 -19 15 -19 8 0 -5 15 -3 18 10 13 10 -4 17 -2 17 5 0 6 10 3 22 -8
19 -16 20 -16 9 -1 -8 9 -11 20 -8 23 7 7 31 -14 40 -36 4 -8 5 -3 2 12 -4 21
1 30 28 47 17 11 26 21 19 21 -7 0 -11 4 -8 9 3 5 -1 14 -9 21 -15 12 -26 14
-130 25 -58 6 -115 13 -165 20 -19 3 -55 7 -80 9 -25 2 -46 5 -47 6 -3 3 -35
7 -64 9 -12 1 -17 5 -13 13 5 7 3 8 -6 3 -24 -15 -70 -11 -70 5 0 21 16 44 26
37 5 -3 10 6 10 19 2 28 22 56 35 48 5 -3 9 0 9 5 0 6 -5 11 -11 11 -6 0 -3 7
5 16 9 8 16 20 16 26 0 5 6 8 13 5 8 -3 14 1 14 9 0 7 -5 11 -10 7 -5 -3 -4 4
2 16 7 11 16 21 21 21 6 0 9 3 9 8 -3 17 2 31 14 44 6 7 20 29 29 48 27 56 62
115 71 118 4 2 7 9 7 17 0 7 7 18 15 25 9 7 13 15 10 18 -7 8 16 33 26 27 4
-3 6 3 4 14 -2 11 3 25 11 32 8 6 14 17 14 23 0 7 8 21 18 32 10 10 19 22 20
26 12 38 14 39 36 21 18 -15 19 -16 7 -1 -7 9 -9 23 -5 29 5 8 3 9 -5 4 -7 -4
-2 9 10 28 19 29 29 34 52 31 15 -2 26 0 23 4 -3 4 5 9 17 9 17 2 18 0 7 -7
-12 -7 -10 -9 7 -8 11 1 19 7 16 13 -4 12 1 14 60 17 20 2 37 6 37 11 0 5 13
6 29 4 17 -3 31 -1 33 5 2 5 24 10 50 11 29 1 44 5 41 12 -4 5 -3 7 1 3 4 -3
20 -3 36 2 18 5 32 4 40 -3 10 -9 11 -9 5 2 -6 11 -4 13 8 8 10 -4 17 -2 17 5
0 6 6 5 17 -3 11 -10 14 -10 9 -1 -4 6 -2 12 3 12 10 0 15 -14 12 -33 -1 -5 3
-6 8 -3 5 3 7 16 4 29 -4 18 -3 19 6 7 7 -10 11 -11 11 -2 0 6 7 12 15 12 18
0 19 -12 3 -29 -10 -10 -8 -10 10 0 12 8 20 19 18 25 -4 11 -3 12 52 15 17 1
32 7 33 13 0 6 2 19 4 29 6 33 -21 44 -147 56 -68 7 -136 15 -153 17 -56 8
-140 17 -162 18 -13 1 -23 4 -23 8 0 4 -7 5 -15 2 -12 -5 -13 -1 -4 26 7 18
17 29 24 26 7 -2 12 1 12 7 -1 38 4 49 19 43 14 -5 15 -4 4 9 -7 8 -8 15 -2
15 5 0 12 8 15 18 9 28 68 126 81 134 6 4 7 8 2 8 -6 0 -1 7 10 15 10 8 16 15
12 15 -4 0 1 15 12 33 10 17 27 47 36 64 9 18 21 30 26 27 6 -4 8 -1 6 7 -7
20 11 51 24 43 7 -4 8 -2 4 5 -4 6 2 28 15 49 12 20 33 57 47 82 14 25 28 47
31 50 4 3 12 18 19 33 7 15 16 26 22 22 5 -3 7 3 5 15 -2 11 0 22 5 25 5 3 21
28 36 55 15 27 31 47 37 43 6 -3 7 -1 4 5 -10 15 3 43 16 35 5 -3 7 -1 4 5
-10 14 25 73 40 67 7 -2 15 0 18 6 4 5 3 9 -2 8 -21 -4 -22 3 -6 29 10 15 25
33 33 40 12 11 12 12 1 6 -9 -5 -6 5 7 23 12 17 22 36 22 41 0 6 6 17 13 24 6
8 17 23 23 33 6 11 25 46 43 78 l32 57 -595 0 -596 0 -1 48 c-2 116 -16 200
-51 306 -37 114 -87 216 -143 291 -16 22 -34 46 -40 54 -30 43 -174 175 -232
213 -96 63 -237 127 -317 144 -11 3 -43 10 -71 15 -46 10 -309 21 -317 14z
m1653 -2510 c1 -5 1 -14 0 -18 -1 -5 3 -6 8 -2 6 3 7 13 4 23 -6 15 -4 15 9 4
9 -7 22 -12 30 -11 7 1 31 0 53 -1 l40 -2 -35 -8 c-19 -5 -48 -11 -65 -14 -16
-2 -30 -5 -30 -6 0 -1 -16 -3 -35 -6 -19 -2 -46 -7 -60 -10 -14 -4 -36 -8 -49
-10 -21 -3 -22 -2 -7 15 9 10 16 21 16 25 0 4 6 13 13 21 14 15 106 16 108 0z
m-2641 -635 c0 -5 5 -10 11 -10 5 0 7 5 4 10 -3 6 -2 10 3 10 12 0 52 -62 46
-71 -2 -4 -23 -2 -46 5 -24 7 -58 12 -75 11 -24 0 -33 4 -33 15 0 9 -3 11 -8
5 -8 -12 -62 -15 -62 -4 0 8 37 17 98 23 22 2 36 -2 43 -13 8 -13 9 -12 4 7
-4 13 -2 22 4 22 6 0 11 -4 11 -10z m2002 -386 c18 -3 48 -6 66 -6 17 -1 32
-6 32 -12 0 -6 5 -4 10 4 5 8 10 11 10 5 0 -5 17 -11 38 -12 95 -4 142 -8 142
-14 0 -3 -24 -11 -52 -19 -29 -8 -55 -15 -58 -16 -3 0 -24 -4 -47 -9 -24 -4
-43 -11 -43 -14 0 -4 -8 -7 -17 -8 -25 -2 -63 -10 -100 -22 -18 -5 -33 -7 -33
-4 0 3 -6 1 -12 -4 -12 -8 -21 -9 -44 -4 -4 0 -1 8 6 17 8 8 9 14 3 12 -12 -3
-14 3 -6 32 3 11 9 20 14 20 5 0 9 7 9 15 0 8 5 15 11 15 5 0 7 5 3 12 -5 8
-2 9 10 5 14 -6 17 -3 12 8 -3 9 -2 13 4 10 5 -3 24 -8 42 -11z m-115 -132 c1
-10 -5 -19 -13 -19 -14 0 -19 19 -7 30 11 12 19 8 20 -11z"/>
<path d="M4231 2733 c-1 -17 16 -25 25 -12 4 7 3 9 -4 5 -5 -3 -13 0 -15 6 -4
9 -6 10 -6 1z"/>
<path d="M4166 2703 c-6 -14 -5 -15 5 -6 7 7 10 15 7 18 -3 3 -9 -2 -12 -12z"/>
<path d="M1650 2080 c0 -5 5 -10 11 -10 5 0 7 5 4 10 -3 6 -8 10 -11 10 -2 0
-4 -4 -4 -10z"/>
<path d="M1660 2056 c0 -2 7 -7 16 -10 8 -3 12 -2 9 4 -6 10 -25 14 -25 6z"/>
<path d="M3600 1700 c0 -5 5 -10 11 -10 5 0 7 5 4 10 -3 6 -8 10 -11 10 -2 0
-4 -4 -4 -10z"/>
<path d="M3639 1698 c-5 -18 -6 -38 -1 -34 7 8 12 36 6 36 -2 0 -4 -1 -5 -2z"/>
<path d="M3575 1679 c-4 -6 -5 -12 -2 -15 2 -3 7 2 10 11 7 17 1 20 -8 4z"/>
<path d="M3667 1679 c7 -7 15 -10 18 -7 3 3 -2 9 -12 12 -14 6 -15 5 -6 -5z"/>
<path d="M537 3915 c-4 -8 -3 -16 1 -19 4 -3 9 4 9 15 2 23 -3 25 -10 4z"/>
<path d="M4895 3880 c3 -5 8 -10 11 -10 2 0 4 5 4 10 0 6 -5 10 -11 10 -5 0
-7 -4 -4 -10z"/>
<path d="M4835 3829 c-4 -6 -5 -12 -2 -15 2 -3 7 2 10 11 7 17 1 20 -8 4z"/>
<path d="M670 3776 c0 -2 8 -10 18 -17 15 -13 16 -12 3 4 -13 16 -21 21 -21
13z"/>
<path d="M726 3662 c-3 -5 1 -9 9 -9 8 0 12 4 9 9 -3 4 -7 8 -9 8 -2 0 -6 -4
-9 -8z"/>
<path d="M4706 3582 c-3 -5 1 -9 9 -9 8 0 12 4 9 9 -3 4 -7 8 -9 8 -2 0 -6 -4
-9 -8z"/>
<path d="M775 3520 c3 -5 8 -10 11 -10 2 0 4 5 4 10 0 6 -5 10 -11 10 -5 0 -7
-4 -4 -10z"/>
<path d="M839 3453 c-13 -16 -12 -17 4 -4 9 7 17 15 17 17 0 8 -8 3 -21 -13z"/>
<path d="M854 3415 c3 -23 12 -26 13 -5 1 11 -2 20 -7 20 -4 0 -7 -7 -6 -15z"/>
<path d="M4546 3378 c3 -4 9 -8 15 -8 5 0 9 4 9 8 0 5 -7 9 -15 9 -8 0 -12 -4
-9 -9z"/>
<path d="M940 3306 c0 -2 8 -10 18 -17 15 -13 16 -12 3 4 -13 16 -21 21 -21
13z"/>
<path d="M4510 3300 c0 -5 5 -10 11 -10 5 0 7 5 4 10 -3 6 -8 10 -11 10 -2 0
-4 -4 -4 -10z"/>
<path d="M4546 3298 c3 -5 10 -6 15 -3 13 9 11 12 -6 12 -8 0 -12 -4 -9 -9z"/>
<path d="M945 3260 c-3 -6 1 -7 9 -4 18 7 21 14 7 14 -6 0 -13 -4 -16 -10z"/>
<path d="M4473 3247 c0 -8 6 -14 14 -14 9 0 10 4 2 14 -6 7 -12 13 -14 13 -1
0 -2 -6 -2 -13z"/>
<path d="M970 3221 c0 -6 4 -13 10 -16 6 -3 7 1 4 9 -7 18 -14 21 -14 7z"/>
<path d="M4440 3160 c-9 -6 -10 -10 -3 -10 6 0 15 5 18 10 8 12 4 12 -15 0z"/>
<path d="M4455 3120 c3 -5 8 -10 11 -10 2 0 4 5 4 10 0 6 -5 10 -11 10 -5 0
-7 -4 -4 -10z"/>
<path d="M980 3089 c0 -5 -4 -8 -9 -4 -5 3 -12 1 -15 -4 -4 -5 2 -8 11 -7 15
3 33 26 19 26 -3 0 -6 -5 -6 -11z"/>
<path d="M1116 2967 c3 -10 9 -15 12 -12 3 3 0 11 -7 18 -10 9 -11 8 -5 -6z"/>
<path d="M1215 2760 c3 -5 8 -10 11 -10 2 0 4 5 4 10 0 6 -5 10 -11 10 -5 0
-7 -4 -4 -10z"/>
<path d="M1254 2740 c0 -13 4 -16 10 -10 7 7 7 13 0 20 -6 6 -10 3 -10 -10z"/>
<path d="M4753 2723 c4 -6 2 -13 -5 -15 -8 -3 -6 -6 4 -10 17 -7 19 15 3 29
-4 4 -5 3 -2 -4z"/>
<path d="M4719 2673 c-12 -16 -12 -17 2 -6 9 7 19 10 22 6 4 -3 7 -1 7 5 0 17
-16 15 -31 -5z"/>
<path d="M4666 2663 c-6 -14 -5 -15 5 -6 7 7 10 15 7 18 -3 3 -9 -2 -12 -12z"/>
<path d="M1290 2599 c0 -5 5 -7 10 -4 6 3 10 8 10 11 0 2 -4 4 -10 4 -5 0 -10
-5 -10 -11z"/>
<path d="M1350 2600 c0 -5 5 -10 11 -10 5 0 7 5 4 10 -3 6 -8 10 -11 10 -2 0
-4 -4 -4 -10z"/>
<path d="M4236 2578 c3 -5 10 -6 15 -3 13 9 11 12 -6 12 -8 0 -12 -4 -9 -9z"/>
<path d="M4082 2555 c-7 -8 -9 -15 -4 -15 5 0 15 7 22 15 16 19 -1 19 -18 0z"/>
<path d="M4110 2536 c0 -8 4 -17 9 -20 5 -4 7 3 4 14 -6 23 -13 26 -13 6z"/>
<path d="M4159 2533 c-13 -16 -12 -17 4 -4 9 7 17 15 17 17 0 8 -8 3 -21 -13z"/>
<path d="M4060 2526 c0 -2 9 -6 20 -9 11 -3 18 -1 14 4 -5 9 -34 13 -34 5z"/>
<path d="M1395 2500 c-3 -5 -1 -10 4 -10 6 0 11 5 11 10 0 6 -2 10 -4 10 -3 0
-8 -4 -11 -10z"/>
<path d="M1385 2460 c-3 -6 1 -7 9 -4 18 7 21 14 7 14 -6 0 -13 -4 -16 -10z"/>
<path d="M1426 2442 c-3 -5 1 -9 9 -9 8 0 12 4 9 9 -3 4 -7 8 -9 8 -2 0 -6 -4
-9 -8z"/>
<path d="M4050 2440 c0 -5 5 -10 11 -10 5 0 7 5 4 10 -3 6 -8 10 -11 10 -2 0
-4 -4 -4 -10z"/>
<path d="M1475 2370 c10 -11 20 -20 23 -20 3 0 -3 9 -13 20 -10 11 -20 20 -23
20 -3 0 3 -9 13 -20z"/>
<path d="M3976 2382 c-3 -5 1 -9 9 -9 8 0 12 4 9 9 -3 4 -7 8 -9 8 -2 0 -6 -4
-9 -8z"/>
<path d="M4010 2360 c0 -5 5 -10 11 -10 5 0 7 5 4 10 -3 6 -8 10 -11 10 -2 0
-4 -4 -4 -10z"/>
<path d="M1455 2320 c-3 -5 -1 -10 4 -10 6 0 11 5 11 10 0 6 -2 10 -4 10 -3 0
-8 -4 -11 -10z"/>
<path d="M1516 2262 c-3 -5 1 -9 9 -9 8 0 12 4 9 9 -3 4 -7 8 -9 8 -2 0 -6 -4
-9 -8z"/>
<path d="M3876 2213 c-6 -14 -5 -15 5 -6 7 7 10 15 7 18 -3 3 -9 -2 -12 -12z"/>
<path d="M1535 2200 c3 -5 8 -10 11 -10 2 0 4 5 4 10 0 6 -5 10 -11 10 -5 0
-7 -4 -4 -10z"/>
<path d="M3861 2181 c-10 -7 -7 -9 12 -8 14 1 23 5 20 10 -6 9 -15 9 -32 -2z"/>
<path d="M3826 2121 c-3 -4 6 -7 19 -7 14 0 22 2 19 5 -8 8 -34 10 -38 2z"/>
<path d="M3826 2079 c4 -8 30 -6 38 2 3 3 -5 5 -19 5 -13 0 -22 -3 -19 -7z"/>
<path d="M3799 2078 c-5 -9 -5 -48 -1 -43 6 6 11 45 5 45 -2 0 -4 -1 -4 -2z"/>
<path d="M1296 1982 c-3 -5 1 -9 9 -9 8 0 12 4 9 9 -3 4 -7 8 -9 8 -2 0 -6 -4
-9 -8z"/>
<path d="M3757 1935 c-4 -8 -3 -16 1 -19 4 -3 9 4 9 15 2 23 -3 25 -10 4z"/>
<path d="M3710 1880 c0 -5 5 -10 11 -10 5 0 7 5 4 10 -3 6 -8 10 -11 10 -2 0
-4 -4 -4 -10z"/>
<path d="M1735 1860 c3 -5 8 -10 11 -10 2 0 4 5 4 10 0 6 -5 10 -11 10 -5 0
-7 -4 -4 -10z"/>
<path d="M1786 1840 c5 -8 9 -18 9 -22 0 -3 3 -9 7 -13 3 -4 5 0 4 9 -1 9 -8
22 -16 29 -10 10 -11 9 -4 -3z"/>
<path d="M3646 1818 c3 -5 10 -6 15 -3 13 9 11 12 -6 12 -8 0 -12 -4 -9 -9z"/>
<path d="M1876 1658 c3 -5 10 -6 15 -3 13 9 11 12 -6 12 -8 0 -12 -4 -9 -9z"/>
<path d="M4203 1655 c-18 -19 -16 -30 2 -15 8 6 19 9 24 6 5 -4 13 -1 17 5 4
8 3 9 -4 5 -7 -4 -12 -2 -12 3 0 15 -13 13 -27 -4z"/>
<path d="M1910 1606 c0 -2 7 -7 16 -10 8 -3 12 -2 9 4 -6 10 -25 14 -25 6z"/>
<path d="M1920 1560 c-9 -6 -10 -10 -3 -10 6 0 15 5 18 10 8 12 4 12 -15 0z"/>
<path d="M3973 1555 c0 -8 4 -12 9 -9 5 3 6 10 3 15 -9 13 -12 11 -12 -6z"/>
<path d="M3795 1541 c-3 -5 -2 -12 3 -15 5 -3 9 1 9 9 0 17 -3 19 -12 6z"/>
<path d="M3850 1539 c0 -5 5 -7 10 -4 6 3 10 8 10 11 0 2 -4 4 -10 4 -5 0 -10
-5 -10 -11z"/>
<path d="M1935 1500 c-3 -5 -1 -10 4 -10 6 0 11 5 11 10 0 6 -2 10 -4 10 -3 0
-8 -4 -11 -10z"/>
<path d="M3551 1473 c-1 -17 16 -25 25 -12 4 7 3 9 -4 5 -5 -3 -13 0 -15 6 -4
9 -6 10 -6 1z"/>
<path d="M3510 1460 c-9 -6 -10 -10 -3 -10 6 0 15 5 18 10 8 12 4 12 -15 0z"/>
<path d="M3466 1445 c4 -9 9 -13 12 -10 3 3 15 -3 26 -12 20 -17 20 -17 7 0
-8 10 -22 22 -32 28 -15 8 -17 6 -13 -6z"/>
<path d="M3433 1428 c0 -13 1 -17 4 -10 3 6 9 10 14 7 5 -4 6 1 3 9 -9 23 -20
19 -21 -6z"/>
<path d="M3525 1440 c-3 -6 1 -7 9 -4 18 7 21 14 7 14 -6 0 -13 -4 -16 -10z"/>
<path d="M3400 1406 c0 -2 7 -7 16 -10 8 -3 12 -2 9 4 -6 10 -25 14 -25 6z"/>
<path d="M1990 1381 c0 -6 4 -13 10 -16 6 -3 7 1 4 9 -7 18 -14 21 -14 7z"/>
<path d="M3480 1380 c-9 -6 -10 -10 -3 -10 6 0 15 5 18 10 8 12 4 12 -15 0z"/>
<path d="M2030 1366 c0 -2 7 -7 16 -10 8 -3 12 -2 9 4 -6 10 -25 14 -25 6z"/>
<path d="M3431 1333 c7 -12 15 -20 18 -17 3 2 -3 12 -13 22 -17 16 -18 16 -5
-5z"/>
<path d="M3359 1293 c-13 -16 -12 -17 4 -4 16 13 21 21 13 21 -2 0 -10 -8 -17
-17z"/>
<path d="M3395 1301 c-3 -5 -2 -12 3 -15 5 -3 9 1 9 9 0 17 -3 19 -12 6z"/>
<path d="M2113 1283 c4 -3 1 -13 -6 -22 -11 -14 -10 -14 5 -2 16 12 16 31 1
31 -4 0 -3 -3 0 -7z"/>
<path d="M2120 1240 c-9 -6 -10 -10 -3 -10 6 0 15 5 18 10 8 12 4 12 -15 0z"/>
<path d="M3355 1230 c10 -11 20 -20 23 -20 3 0 -3 9 -13 20 -10 11 -20 20 -23
20 -3 0 3 -9 13 -20z"/>
<path d="M3309 1223 c-13 -16 -12 -17 4 -4 9 7 17 15 17 17 0 8 -8 3 -21 -13z"/>
<path d="M3326 1182 c-3 -5 1 -9 9 -9 8 0 12 4 9 9 -3 4 -7 8 -9 8 -2 0 -6 -4
-9 -8z"/>
<path d="M2187 1125 c3 -8 9 -12 14 -9 12 7 11 11 -5 17 -10 4 -13 1 -9 -8z"/>
<path d="M2140 1112 c0 -6 -8 -9 -17 -6 -15 5 -16 4 -3 -5 16 -11 40 3 27 16
-4 3 -7 1 -7 -5z"/>
<path d="M2173 1101 c0 -9 9 -17 19 -17 10 0 18 1 18 1 0 0 -9 8 -19 17 -18
16 -20 15 -18 -1z"/>
<path d="M3256 1093 c-6 -14 -5 -15 5 -6 7 7 10 15 7 18 -3 3 -9 -2 -12 -12z"/>
<path d="M3211 1067 c-8 -10 -7 -14 2 -14 8 0 14 6 14 14 0 7 -1 13 -2 13 -2
0 -8 -6 -14 -13z"/>
<path d="M1814 1022 c4 -3 14 -7 22 -8 9 -1 13 0 10 4 -4 3 -14 7 -22 8 -9 1
-13 0 -10 -4z"/>
<path d="M3227 1019 c7 -7 15 -10 18 -7 3 3 -2 9 -12 12 -14 6 -15 5 -6 -5z"/>
<path d="M2235 1011 c-3 -5 -2 -12 3 -15 5 -3 9 1 9 9 0 17 -3 19 -12 6z"/>
<path d="M3190 996 c0 -2 8 -10 18 -17 15 -13 16 -12 3 4 -13 16 -21 21 -21
13z"/>
<path d="M3166 982 c-3 -5 1 -9 9 -9 8 0 12 4 9 9 -3 4 -7 8 -9 8 -2 0 -6 -4
-9 -8z"/>
<path d="M1509 943 c-13 -16 -12 -17 4 -4 16 13 21 21 13 21 -2 0 -10 -8 -17
-17z"/>
<path d="M3147 919 c7 -7 15 -10 18 -7 3 3 -2 9 -12 12 -14 6 -15 5 -6 -5z"/>
<path d="M3096 853 c-6 -14 -5 -15 5 -6 7 7 10 15 7 18 -3 3 -9 -2 -12 -12z"/>
<path d="M2310 819 c0 -5 5 -7 10 -4 6 3 10 8 10 11 0 2 -4 4 -10 4 -5 0 -10
-5 -10 -11z"/>
<path d="M2455 669 c-4 -6 -5 -12 -2 -15 2 -3 7 2 10 11 7 17 1 20 -8 4z"/>
<path d="M2416 662 c-3 -5 1 -9 9 -9 8 0 12 4 9 9 -3 4 -7 8 -9 8 -2 0 -6 -4
-9 -8z"/>
<path d="M3010 639 c0 -5 5 -7 10 -4 6 3 10 8 10 11 0 2 -4 4 -10 4 -5 0 -10
-5 -10 -11z"/>
<path d="M2450 599 c0 -5 5 -7 10 -4 6 3 10 8 10 11 0 2 -4 4 -10 4 -5 0 -10
-5 -10 -11z"/>
<path d="M2910 500 c0 -5 5 -10 11 -10 5 0 7 5 4 10 -3 6 -8 10 -11 10 -2 0
-4 -4 -4 -10z"/>
<path d="M2536 482 c-3 -5 1 -9 9 -9 8 0 12 4 9 9 -3 4 -7 8 -9 8 -2 0 -6 -4
-9 -8z"/>
<path d="M2560 456 c-8 -11 -9 -20 -1 -33 9 -16 10 -15 8 7 -1 16 3 24 11 22
8 -1 11 2 7 8 -8 13 -10 13 -25 -4z"/>
<path d="M2890 439 c0 -5 5 -7 10 -4 6 3 10 8 10 11 0 2 -4 4 -10 4 -5 0 -10
-5 -10 -11z"/>
<path d="M2590 421 c0 -6 4 -13 10 -16 6 -3 7 1 4 9 -7 18 -14 21 -14 7z"/>
<path d="M2593 375 c0 -8 4 -12 9 -9 5 3 6 10 3 15 -9 13 -12 11 -12 -6z"/>
<path d="M2615 320 c3 -5 8 -10 11 -10 2 0 4 5 4 10 0 6 -5 10 -11 10 -5 0 -7
-4 -4 -10z"/>
<path d="M2815 280 c3 -5 8 -10 11 -10 2 0 4 5 4 10 0 6 -5 10 -11 10 -5 0 -7
-4 -4 -10z"/>
<path d="M2635 260 c-3 -5 -1 -10 4 -10 6 0 11 5 11 10 0 6 -2 10 -4 10 -3 0
-8 -4 -11 -10z"/>
<path d="M2673 255 c0 -8 4 -12 9 -9 5 3 6 10 3 15 -9 13 -12 11 -12 -6z"/>
<path d="M2733 155 c0 -8 4 -12 9 -9 5 3 6 10 3 15 -9 13 -12 11 -12 -6z"/>
<path d="M2687 139 c7 -7 15 -10 18 -7 3 3 -2 9 -12 12 -14 6 -15 5 -6 -5z"/>
</g>
</svg>
